<svg xmlns="http://www.w3.org/2000/svg" xmlns:xlink="http://www.w3.org/1999/xlink" width="87" zoomAndPan="magnify" viewBox="0 0 65.25 65.25" height="87" preserveAspectRatio="xMidYMid meet" version="1.0"><defs><clipPath id="ae09101227"><path d="M 0 0 L 63.90625 0 L 63.90625 63.90625 L 0 63.90625 Z M 0 0 " clip-rule="nonzero"/></clipPath><clipPath id="d7a7919946"><path d="M 31.949219 63.90625 C 49.597656 63.90625 63.90625 49.597656 63.90625 31.949219 C 63.90625 14.296875 49.597656 -0.0078125 31.949219 -0.0078125 C 14.296875 -0.0078125 -0.0078125 14.296875 -0.0078125 31.949219 C -0.0078125 49.597656 14.296875 63.90625 31.949219 63.90625 Z M 31.949219 63.90625 " clip-rule="nonzero"/></clipPath><clipPath id="18df8ac33d"><path d="M 0.140625 0.140625 L 63.90625 0.140625 L 63.90625 63.90625 L 0.140625 63.90625 Z M 0.140625 0.140625 " clip-rule="nonzero"/></clipPath></defs><g clip-path="url(#ae09101227)"><g clip-path="url(#d7a7919946)"><path fill="#ffffff" d="M 63.90625 63.90625 L -0.0078125 63.90625 L -0.0078125 -0.0078125 L 63.90625 -0.0078125 Z M 63.90625 63.90625 " fill-opacity="1" fill-rule="nonzero"/></g></g><g clip-path="url(#18df8ac33d)"><path fill="#314482" d="M 0.449219 30.894531 C 0.417969 31.925781 0.441406 32.957031 0.511719 33.984375 C 0.582031 35.015625 0.703125 36.039062 0.875 37.054688 C 1.042969 38.074219 1.265625 39.078125 1.535156 40.074219 C 1.804688 41.070312 2.125 42.050781 2.488281 43.015625 C 2.855469 43.980469 3.269531 44.921875 3.726562 45.847656 C 4.1875 46.769531 4.691406 47.667969 5.238281 48.542969 C 5.785156 49.417969 6.375 50.261719 7.003906 51.078125 C 7.636719 51.894531 8.304688 52.679688 9.011719 53.429688 C 9.71875 54.179688 10.460938 54.894531 11.238281 55.574219 C 12.015625 56.25 12.824219 56.890625 13.667969 57.488281 C 14.507812 58.085938 15.375 58.640625 16.269531 59.15625 C 17.164062 59.667969 18.082031 60.136719 19.023438 60.558594 C 19.964844 60.980469 20.921875 61.359375 21.902344 61.6875 C 22.878906 62.015625 23.871094 62.296875 24.875 62.527344 C 25.878906 62.757812 26.894531 62.941406 27.917969 63.070312 C 28.941406 63.203125 29.96875 63.285156 31 63.316406 C 32.03125 63.34375 33.0625 63.324219 34.089844 63.253906 C 35.117188 63.183594 36.140625 63.0625 37.160156 62.894531 C 38.175781 62.722656 39.183594 62.503906 40.179688 62.230469 C 41.175781 61.960938 42.15625 61.644531 43.117188 61.277344 C 44.082031 60.914062 45.027344 60.5 45.953125 60.042969 C 46.875 59.582031 47.773438 59.078125 48.648438 58.53125 C 49.523438 57.984375 50.371094 57.394531 51.1875 56.765625 C 52.003906 56.136719 52.785156 55.46875 53.539062 54.761719 C 54.289062 54.050781 55.003906 53.308594 55.679688 52.53125 C 56.359375 51.753906 56.996094 50.945312 57.597656 50.105469 C 58.195312 49.265625 58.75 48.398438 59.265625 47.503906 C 59.777344 46.609375 60.246094 45.691406 60.667969 44.75 C 61.09375 43.808594 61.46875 42.851562 61.796875 41.875 C 62.125 40.894531 62.40625 39.902344 62.636719 38.898438 C 62.871094 37.894531 63.050781 36.878906 63.183594 35.855469 C 63.316406 34.832031 63.398438 33.804688 63.429688 32.773438 C 63.460938 31.746094 63.441406 30.714844 63.371094 29.683594 C 63.300781 28.65625 63.179688 27.632812 63.007812 26.613281 C 62.835938 25.597656 62.617188 24.589844 62.347656 23.59375 C 62.078125 22.601562 61.761719 21.621094 61.394531 20.65625 C 61.03125 19.691406 60.617188 18.746094 60.160156 17.820312 C 59.699219 16.898438 59.199219 16 58.652344 15.125 C 58.105469 14.25 57.515625 13.402344 56.886719 12.585938 C 56.253906 11.769531 55.585938 10.984375 54.878906 10.234375 C 54.171875 9.484375 53.429688 8.769531 52.652344 8.089844 C 51.875 7.414062 51.066406 6.773438 50.226562 6.175781 C 49.386719 5.574219 48.519531 5.019531 47.625 4.507812 C 46.730469 3.992188 45.8125 3.523438 44.875 3.101562 C 43.933594 2.675781 42.972656 2.300781 41.996094 1.972656 C 41.019531 1.640625 40.027344 1.359375 39.023438 1.128906 C 38.015625 0.898438 37.003906 0.714844 35.980469 0.582031 C 34.957031 0.449219 33.929688 0.367188 32.898438 0.335938 C 31.867188 0.304688 30.835938 0.324219 29.804688 0.394531 C 28.773438 0.464844 27.75 0.585938 26.734375 0.757812 C 25.714844 0.925781 24.707031 1.148438 23.710938 1.417969 C 22.714844 1.6875 21.734375 2.003906 20.769531 2.371094 C 19.804688 2.734375 18.859375 3.148438 17.933594 3.609375 C 17.007812 4.066406 16.109375 4.570312 15.234375 5.117188 C 14.359375 5.664062 13.511719 6.253906 12.695312 6.882812 C 11.878906 7.515625 11.09375 8.183594 10.339844 8.890625 C 9.589844 9.601562 8.875 10.34375 8.195312 11.121094 C 7.519531 11.898438 6.878906 12.707031 6.28125 13.550781 C 5.679688 14.390625 5.125 15.257812 4.609375 16.152344 C 4.097656 17.050781 3.628906 17.96875 3.207031 18.910156 C 2.78125 19.851562 2.40625 20.8125 2.078125 21.789062 C 1.75 22.769531 1.46875 23.761719 1.238281 24.765625 C 1.007812 25.773438 0.824219 26.789062 0.691406 27.8125 C 0.5625 28.835938 0.480469 29.863281 0.449219 30.894531 Z M 41.515625 15.324219 L 27.070312 31.839844 L 41.515625 48.355469 L 38.140625 51.328125 L 21.085938 31.839844 L 38.140625 12.355469 Z M 41.515625 15.324219 " fill-opacity="1" fill-rule="nonzero"/></g></svg>