<svg xmlns="http://www.w3.org/2000/svg" xmlns:xlink="http://www.w3.org/1999/xlink" width="87" zoomAndPan="magnify" viewBox="0 0 65.25 65.25" height="87" preserveAspectRatio="xMidYMid meet" version="1.0"><defs><clipPath id="6dc7b8e2f8"><path d="M 0 0 L 63.914062 0 L 63.914062 63.914062 L 0 63.914062 Z M 0 0 " clip-rule="nonzero"/></clipPath><clipPath id="c4c0e9d322"><path d="M 31.957031 0 C 14.308594 0 0 14.308594 0 31.957031 C 0 49.605469 14.308594 63.914062 31.957031 63.914062 C 49.605469 63.914062 63.914062 49.605469 63.914062 31.957031 C 63.914062 14.308594 49.605469 0 31.957031 0 Z M 31.957031 0 " clip-rule="nonzero"/></clipPath><clipPath id="44146b0764"><path d="M 0 0 L 63.765625 0 L 63.765625 63.765625 L 0 63.765625 Z M 0 0 " clip-rule="nonzero"/></clipPath></defs><g clip-path="url(#6dc7b8e2f8)"><g clip-path="url(#c4c0e9d322)"><path fill="#ffffff" d="M 0 0 L 63.914062 0 L 63.914062 63.914062 L 0 63.914062 Z M 0 0 " fill-opacity="1" fill-rule="nonzero"/></g></g><g clip-path="url(#44146b0764)"><path fill="#314482" d="M 63.457031 33.011719 C 63.488281 31.980469 63.464844 30.949219 63.394531 29.921875 C 63.324219 28.890625 63.203125 27.867188 63.03125 26.851562 C 62.863281 25.832031 62.640625 24.828125 62.371094 23.832031 C 62.101562 22.835938 61.78125 21.855469 61.414062 20.890625 C 61.050781 19.925781 60.636719 18.984375 60.179688 18.058594 C 59.71875 17.136719 59.214844 16.238281 58.667969 15.363281 C 58.121094 14.488281 57.53125 13.644531 56.902344 12.824219 C 56.269531 12.007812 55.601562 11.226562 54.894531 10.476562 C 54.1875 9.722656 53.445312 9.011719 52.667969 8.332031 C 51.890625 7.65625 51.078125 7.015625 50.238281 6.417969 C 49.398438 5.820312 48.53125 5.265625 47.636719 4.75 C 46.742188 4.238281 45.824219 3.769531 44.882812 3.347656 C 43.941406 2.925781 42.984375 2.546875 42.003906 2.21875 C 41.027344 1.890625 40.035156 1.609375 39.03125 1.378906 C 38.027344 1.148438 37.011719 0.964844 35.988281 0.835938 C 34.964844 0.703125 33.9375 0.621094 32.90625 0.589844 C 31.875 0.558594 30.84375 0.582031 29.816406 0.652344 C 28.789062 0.722656 27.765625 0.839844 26.746094 1.011719 C 25.730469 1.183594 24.722656 1.402344 23.726562 1.671875 C 22.730469 1.945312 21.75 2.261719 20.785156 2.628906 C 19.824219 2.992188 18.878906 3.40625 17.953125 3.863281 C 17.03125 4.324219 16.132812 4.828125 15.257812 5.375 C 14.382812 5.921875 13.535156 6.511719 12.71875 7.140625 C 11.902344 7.769531 11.121094 8.4375 10.367188 9.144531 C 9.617188 9.851562 8.902344 10.597656 8.226562 11.375 C 7.546875 12.152344 6.910156 12.960938 6.308594 13.800781 C 5.710938 14.640625 5.15625 15.507812 4.640625 16.402344 C 4.128906 17.296875 3.660156 18.214844 3.238281 19.15625 C 2.8125 20.097656 2.4375 21.054688 2.109375 22.03125 C 1.78125 23.011719 1.5 24 1.269531 25.007812 C 1.035156 26.011719 0.855469 27.027344 0.722656 28.050781 C 0.589844 29.074219 0.507812 30.101562 0.476562 31.128906 C 0.445312 32.160156 0.464844 33.191406 0.535156 34.222656 C 0.605469 35.25 0.726562 36.273438 0.898438 37.289062 C 1.070312 38.308594 1.289062 39.316406 1.558594 40.3125 C 1.828125 41.304688 2.144531 42.285156 2.511719 43.25 C 2.875 44.214844 3.289062 45.160156 3.746094 46.082031 C 4.207031 47.007812 4.707031 47.90625 5.253906 48.78125 C 5.800781 49.65625 6.390625 50.503906 7.019531 51.320312 C 7.652344 52.136719 8.320312 52.921875 9.027344 53.671875 C 9.734375 54.421875 10.476562 55.136719 11.253906 55.816406 C 12.03125 56.492188 12.839844 57.132812 13.679688 57.730469 C 14.519531 58.328125 15.386719 58.886719 16.28125 59.398438 C 17.175781 59.914062 18.09375 60.382812 19.03125 60.804688 C 19.972656 61.230469 20.933594 61.605469 21.910156 61.933594 C 22.886719 62.265625 23.878906 62.542969 24.882812 62.777344 C 25.890625 63.007812 26.902344 63.191406 27.925781 63.324219 C 28.949219 63.457031 29.976562 63.539062 31.007812 63.570312 C 32.039062 63.601562 33.070312 63.582031 34.101562 63.511719 C 35.128906 63.441406 36.15625 63.320312 37.171875 63.148438 C 38.191406 62.980469 39.199219 62.757812 40.195312 62.488281 C 41.191406 62.21875 42.171875 61.902344 43.136719 61.535156 C 44.101562 61.171875 45.046875 60.757812 45.972656 60.296875 C 46.898438 59.839844 47.796875 59.335938 48.671875 58.789062 C 49.546875 58.242188 50.394531 57.652344 51.210938 57.023438 C 52.027344 56.390625 52.8125 55.722656 53.566406 55.015625 C 54.316406 54.304688 55.03125 53.5625 55.710938 52.785156 C 56.386719 52.007812 57.027344 51.199219 57.625 50.355469 C 58.226562 49.515625 58.78125 48.648438 59.292969 47.753906 C 59.808594 46.855469 60.277344 45.9375 60.699219 44.996094 C 61.125 44.054688 61.5 43.09375 61.828125 42.117188 C 62.15625 41.136719 62.4375 40.144531 62.667969 39.140625 C 62.898438 38.132812 63.082031 37.117188 63.214844 36.09375 C 63.34375 35.070312 63.425781 34.042969 63.457031 33.011719 Z M 22.390625 48.582031 L 36.835938 32.066406 L 22.390625 15.550781 L 25.765625 12.578125 L 42.820312 32.066406 L 25.765625 51.550781 Z M 22.390625 48.582031 " fill-opacity="1" fill-rule="nonzero"/></g></svg>