<svg xmlns="http://www.w3.org/2000/svg" xmlns:xlink="http://www.w3.org/1999/xlink" width="550" zoomAndPan="magnify" viewBox="0 0 412.5 70.499998" height="94" preserveAspectRatio="xMidYMid meet" version="1.0"><defs><g/><clipPath id="44e101550f"><path d="M 13.058594 0.820312 L 217.863281 0.820312 L 217.863281 65.804688 L 13.058594 65.804688 Z M 13.058594 0.820312 " clip-rule="nonzero"/></clipPath><clipPath id="d72fbf8ff0"><path d="M 217.863281 0.820312 L 398.621094 0.820312 L 398.621094 65.804688 L 217.863281 65.804688 Z M 217.863281 0.820312 " clip-rule="nonzero"/></clipPath></defs><g clip-path="url(#44e101550f)"><path fill="#314482" d="M 13.058594 0.820312 L 217.910156 0.820312 L 217.910156 65.804688 L 13.058594 65.804688 Z M 13.058594 0.820312 " fill-opacity="1" fill-rule="nonzero"/></g><g clip-path="url(#d72fbf8ff0)"><path fill="#ffffff" d="M 217.863281 0.820312 L 398.597656 0.820312 L 398.597656 65.804688 L 217.863281 65.804688 Z M 217.863281 0.820312 " fill-opacity="1" fill-rule="nonzero"/></g><g fill="#ffffff" fill-opacity="1"><g transform="translate(16.808202, 46.45035)"><g><path d="M 22.140625 0 L 2.984375 0 L 2.984375 -26.6875 L 22.546875 -26.6875 C 26.015625 -26.6875 28.875 -26.53125 31.125 -26.21875 C 33.375 -25.90625 35.101562 -25.410156 36.3125 -24.734375 C 37.53125 -24.054688 38.359375 -23.195312 38.796875 -22.15625 C 39.234375 -21.113281 39.453125 -19.863281 39.453125 -18.40625 C 39.410156 -17.269531 39.09375 -16.328125 38.5 -15.578125 C 37.914062 -14.828125 37.226562 -14.265625 36.4375 -13.890625 C 35.65625 -13.523438 34.960938 -13.34375 34.359375 -13.34375 C 34.941406 -13.34375 35.625 -13.226562 36.40625 -13 C 37.1875 -12.769531 37.945312 -12.4375 38.6875 -12 C 39.425781 -11.570312 40.039062 -11.046875 40.53125 -10.421875 C 41.019531 -9.804688 41.265625 -9.097656 41.265625 -8.296875 C 41.265625 -7.253906 41.144531 -6.296875 40.90625 -5.421875 C 40.664062 -4.554688 40.179688 -3.789062 39.453125 -3.125 C 38.722656 -2.457031 37.648438 -1.890625 36.234375 -1.421875 C 34.828125 -0.953125 32.976562 -0.597656 30.6875 -0.359375 C 28.394531 -0.117188 25.546875 0 22.140625 0 Z M 21.5 -15.640625 C 23.132812 -15.640625 24.398438 -15.71875 25.296875 -15.875 C 26.203125 -16.039062 26.828125 -16.285156 27.171875 -16.609375 C 27.523438 -16.941406 27.703125 -17.363281 27.703125 -17.875 C 27.703125 -18.394531 27.523438 -18.816406 27.171875 -19.140625 C 26.828125 -19.472656 26.203125 -19.71875 25.296875 -19.875 C 24.398438 -20.03125 23.132812 -20.109375 21.5 -20.109375 L 14.1875 -20.109375 L 14.1875 -15.640625 Z M 21.5 -6.59375 C 23.175781 -6.59375 24.535156 -6.632812 25.578125 -6.71875 C 26.617188 -6.800781 27.378906 -7 27.859375 -7.3125 C 28.347656 -7.625 28.59375 -8.128906 28.59375 -8.828125 C 28.59375 -9.515625 28.347656 -10.015625 27.859375 -10.328125 C 27.378906 -10.648438 26.617188 -10.851562 25.578125 -10.9375 C 24.535156 -11.019531 23.175781 -11.0625 21.5 -11.0625 L 14.1875 -11.0625 L 14.1875 -6.59375 Z M 21.5 -6.59375 "/></g></g></g><g fill="#ffffff" fill-opacity="1"><g transform="translate(59.562817, 46.45035)"><g><path d="M 34.15625 0 L 2.984375 0 L 2.984375 -26.71875 L 14.1875 -26.71875 L 14.1875 -6.609375 L 34.15625 -6.609375 Z M 34.15625 0 "/></g></g></g><g fill="#ffffff" fill-opacity="1"><g transform="translate(93.345697, 46.45035)"><g><path d="M 20.203125 0.578125 C 13.597656 0.578125 8.738281 -0.78125 5.625 -3.5 C 2.863281 -5.90625 1.484375 -9.1875 1.484375 -13.34375 C 1.484375 -17.488281 2.863281 -20.765625 5.625 -23.171875 C 8.738281 -25.890625 13.597656 -27.25 20.203125 -27.25 C 26.804688 -27.25 31.664062 -25.890625 34.78125 -23.171875 C 37.53125 -20.765625 38.90625 -17.488281 38.90625 -13.34375 C 38.90625 -9.1875 37.53125 -5.90625 34.78125 -3.5 C 31.664062 -0.78125 26.804688 0.578125 20.203125 0.578125 Z M 20.203125 -6.59375 C 22.898438 -6.59375 24.882812 -7.367188 26.15625 -8.921875 C 27.175781 -10.171875 27.6875 -11.644531 27.6875 -13.34375 C 27.6875 -15.039062 27.175781 -16.515625 26.15625 -17.765625 C 24.882812 -19.328125 22.898438 -20.109375 20.203125 -20.109375 C 17.492188 -20.109375 15.5 -19.328125 14.21875 -17.765625 C 13.207031 -16.515625 12.703125 -15.039062 12.703125 -13.34375 C 12.703125 -11.644531 13.207031 -10.171875 14.21875 -8.921875 C 15.5 -7.367188 17.492188 -6.59375 20.203125 -6.59375 Z M 20.203125 -6.59375 "/></g></g></g><g fill="#ffffff" fill-opacity="1"><g transform="translate(133.736431, 46.45035)"><g><path d="M 20.203125 0.578125 C 13.597656 0.578125 8.738281 -0.78125 5.625 -3.5 C 2.863281 -5.894531 1.484375 -9.171875 1.484375 -13.328125 C 1.484375 -17.484375 2.863281 -20.765625 5.625 -23.171875 C 8.738281 -25.878906 13.597656 -27.234375 20.203125 -27.234375 C 24.066406 -27.234375 27.265625 -26.789062 29.796875 -25.90625 C 32.328125 -25.019531 34.296875 -23.804688 35.703125 -22.265625 C 37.109375 -20.722656 38.039062 -18.960938 38.5 -16.984375 L 26.71875 -16.984375 C 25.53125 -19.054688 23.359375 -20.09375 20.203125 -20.09375 C 17.492188 -20.09375 15.5 -19.304688 14.21875 -17.734375 C 13.207031 -16.492188 12.703125 -15.023438 12.703125 -13.328125 C 12.703125 -11.628906 13.207031 -10.160156 14.21875 -8.921875 C 15.5 -7.359375 17.492188 -6.578125 20.203125 -6.578125 C 23.359375 -6.578125 25.53125 -7.617188 26.71875 -9.703125 L 38.5 -9.703125 C 38.039062 -7.703125 37.109375 -5.929688 35.703125 -4.390625 C 34.296875 -2.847656 32.328125 -1.632812 29.796875 -0.75 C 27.265625 0.132812 24.066406 0.578125 20.203125 0.578125 Z M 20.203125 0.578125 "/></g></g></g><g fill="#ffffff" fill-opacity="1"><g transform="translate(173.717674, 46.45035)"><g><path d="M 20.203125 0.578125 C 13.597656 0.578125 8.738281 -0.78125 5.625 -3.5 C 2.863281 -5.90625 1.484375 -9.1875 1.484375 -13.34375 C 1.484375 -17.488281 2.863281 -20.765625 5.625 -23.171875 C 8.738281 -25.890625 13.597656 -27.25 20.203125 -27.25 C 26.804688 -27.25 31.664062 -25.890625 34.78125 -23.171875 C 37.53125 -20.765625 38.90625 -17.488281 38.90625 -13.34375 C 38.90625 -9.1875 37.53125 -5.90625 34.78125 -3.5 C 31.664062 -0.78125 26.804688 0.578125 20.203125 0.578125 Z M 20.203125 -6.59375 C 22.898438 -6.59375 24.882812 -7.367188 26.15625 -8.921875 C 27.175781 -10.171875 27.6875 -11.644531 27.6875 -13.34375 C 27.6875 -15.039062 27.175781 -16.515625 26.15625 -17.765625 C 24.882812 -19.328125 22.898438 -20.109375 20.203125 -20.109375 C 17.492188 -20.109375 15.5 -19.328125 14.21875 -17.765625 C 13.207031 -16.515625 12.703125 -15.039062 12.703125 -13.34375 C 12.703125 -11.644531 13.207031 -10.171875 14.21875 -8.921875 C 15.5 -7.367188 17.492188 -6.59375 20.203125 -6.59375 Z M 20.203125 -6.59375 "/></g></g></g><g fill="#314482" fill-opacity="1"><g transform="translate(221.339523, 46.45035)"><g><path d="M 17.640625 0.578125 C 14.035156 0.578125 11.128906 0.191406 8.921875 -0.578125 C 6.710938 -1.359375 5.03125 -2.425781 3.875 -3.78125 C 2.71875 -5.144531 1.941406 -6.710938 1.546875 -8.484375 L 13.4375 -8.484375 C 14.320312 -7.222656 15.722656 -6.59375 17.640625 -6.59375 C 19.566406 -6.59375 20.972656 -7.222656 21.859375 -8.484375 C 21.929688 -8.609375 21.96875 -8.722656 21.96875 -8.828125 C 21.96875 -9.160156 21.519531 -9.410156 20.625 -9.578125 C 19.738281 -9.742188 18.414062 -9.867188 16.65625 -9.953125 C 14.4375 -10.054688 12.101562 -10.296875 9.65625 -10.671875 C 4.207031 -11.515625 1.484375 -13.703125 1.484375 -17.234375 C 1.484375 -17.535156 1.503906 -17.851562 1.546875 -18.1875 C 1.941406 -19.957031 2.71875 -21.519531 3.875 -22.875 C 5.03125 -24.238281 6.710938 -25.304688 8.921875 -26.078125 C 11.128906 -26.859375 14.035156 -27.25 17.640625 -27.25 C 21.253906 -27.25 24.164062 -26.859375 26.375 -26.078125 C 28.582031 -25.304688 30.265625 -24.238281 31.421875 -22.875 C 32.578125 -21.519531 33.351562 -19.957031 33.75 -18.1875 L 21.859375 -18.1875 C 20.972656 -19.457031 19.566406 -20.09375 17.640625 -20.09375 C 15.722656 -20.09375 14.320312 -19.457031 13.4375 -18.1875 C 13.375 -18.082031 13.34375 -17.988281 13.34375 -17.90625 C 13.34375 -17.613281 13.765625 -17.394531 14.609375 -17.25 C 15.460938 -17.101562 16.71875 -16.976562 18.375 -16.875 C 20.039062 -16.78125 21.804688 -16.617188 23.671875 -16.390625 C 25.546875 -16.171875 27.300781 -15.785156 28.9375 -15.234375 C 30.570312 -14.679688 31.847656 -13.863281 32.765625 -12.78125 C 33.484375 -11.957031 33.84375 -10.90625 33.84375 -9.625 C 33.84375 -9.257812 33.8125 -8.878906 33.75 -8.484375 C 33.351562 -6.710938 32.578125 -5.144531 31.421875 -3.78125 C 30.265625 -2.425781 28.582031 -1.359375 26.375 -0.578125 C 24.164062 0.191406 21.253906 0.578125 17.640625 0.578125 Z M 17.640625 0.578125 "/></g></g></g><g fill="#314482" fill-opacity="1"><g transform="translate(256.667455, 46.45035)"><g><path d="M 14.1875 0 L 2.984375 0 L 2.984375 -26.71875 L 14.1875 -26.71875 Z M 14.1875 0 "/></g></g></g><g fill="#314482" fill-opacity="1"><g transform="translate(273.828864, 46.45035)"><g><path d="M 42.609375 0 L 29.28125 0 L 14.1875 -18.078125 L 14.1875 0 L 2.984375 0 L 2.984375 -26.71875 L 16.3125 -26.71875 L 31.40625 -8.734375 L 31.40625 -26.71875 L 42.609375 -26.71875 Z M 42.609375 0 "/></g></g></g><g fill="#314482" fill-opacity="1"><g transform="translate(319.412692, 46.45035)"><g><path d="M 20.203125 0.578125 C 13.597656 0.578125 8.738281 -0.78125 5.625 -3.5 C 2.863281 -5.90625 1.484375 -9.1875 1.484375 -13.34375 C 1.484375 -17.488281 2.863281 -20.765625 5.625 -23.171875 C 8.738281 -25.890625 13.597656 -27.25 20.203125 -27.25 C 26.804688 -27.25 31.664062 -25.890625 34.78125 -23.171875 C 37.53125 -20.765625 38.90625 -17.488281 38.90625 -13.34375 C 38.90625 -9.1875 37.53125 -5.90625 34.78125 -3.5 C 31.664062 -0.78125 26.804688 0.578125 20.203125 0.578125 Z M 20.203125 -6.59375 C 22.898438 -6.59375 24.882812 -7.367188 26.15625 -8.921875 C 27.175781 -10.171875 27.6875 -11.644531 27.6875 -13.34375 C 27.6875 -15.039062 27.175781 -16.515625 26.15625 -17.765625 C 24.882812 -19.328125 22.898438 -20.109375 20.203125 -20.109375 C 17.492188 -20.109375 15.5 -19.328125 14.21875 -17.765625 C 13.207031 -16.515625 12.703125 -15.039062 12.703125 -13.34375 C 12.703125 -11.644531 13.207031 -10.171875 14.21875 -8.921875 C 15.5 -7.367188 17.492188 -6.59375 20.203125 -6.59375 Z M 20.203125 -6.59375 "/></g></g></g><g fill="#314482" fill-opacity="1"><g transform="translate(359.803432, 46.45035)"><g><path d="M 17.640625 0.578125 C 14.035156 0.578125 11.128906 0.191406 8.921875 -0.578125 C 6.710938 -1.359375 5.03125 -2.425781 3.875 -3.78125 C 2.71875 -5.144531 1.941406 -6.710938 1.546875 -8.484375 L 13.4375 -8.484375 C 14.320312 -7.222656 15.722656 -6.59375 17.640625 -6.59375 C 19.566406 -6.59375 20.972656 -7.222656 21.859375 -8.484375 C 21.929688 -8.609375 21.96875 -8.722656 21.96875 -8.828125 C 21.96875 -9.160156 21.519531 -9.410156 20.625 -9.578125 C 19.738281 -9.742188 18.414062 -9.867188 16.65625 -9.953125 C 14.4375 -10.054688 12.101562 -10.296875 9.65625 -10.671875 C 4.207031 -11.515625 1.484375 -13.703125 1.484375 -17.234375 C 1.484375 -17.535156 1.503906 -17.851562 1.546875 -18.1875 C 1.941406 -19.957031 2.71875 -21.519531 3.875 -22.875 C 5.03125 -24.238281 6.710938 -25.304688 8.921875 -26.078125 C 11.128906 -26.859375 14.035156 -27.25 17.640625 -27.25 C 21.253906 -27.25 24.164062 -26.859375 26.375 -26.078125 C 28.582031 -25.304688 30.265625 -24.238281 31.421875 -22.875 C 32.578125 -21.519531 33.351562 -19.957031 33.75 -18.1875 L 21.859375 -18.1875 C 20.972656 -19.457031 19.566406 -20.09375 17.640625 -20.09375 C 15.722656 -20.09375 14.320312 -19.457031 13.4375 -18.1875 C 13.375 -18.082031 13.34375 -17.988281 13.34375 -17.90625 C 13.34375 -17.613281 13.765625 -17.394531 14.609375 -17.25 C 15.460938 -17.101562 16.71875 -16.976562 18.375 -16.875 C 20.039062 -16.78125 21.804688 -16.617188 23.671875 -16.390625 C 25.546875 -16.171875 27.300781 -15.785156 28.9375 -15.234375 C 30.570312 -14.679688 31.847656 -13.863281 32.765625 -12.78125 C 33.484375 -11.957031 33.84375 -10.90625 33.84375 -9.625 C 33.84375 -9.257812 33.8125 -8.878906 33.75 -8.484375 C 33.351562 -6.710938 32.578125 -5.144531 31.421875 -3.78125 C 30.265625 -2.425781 28.582031 -1.359375 26.375 -0.578125 C 24.164062 0.191406 21.253906 0.578125 17.640625 0.578125 Z M 17.640625 0.578125 "/></g></g></g></svg>